HIERARCHY
ROOT Hips
{
	OFFSET 0.000000 0.000000 0.000000
	CHANNELS 6 Xposition Yposition Zposition Yrotation Xrotation Zrotation
	JOINT Chest
	{
		OFFSET 0.000000 -0.009281 11.569106
		CHANNELS 3 Yrotation Xrotation Zrotation
		JOINT Chest2
		{
			OFFSET -0.000000 0.016865 9.269641
			CHANNELS 3 Yrotation Xrotation Zrotation
			JOINT Chest3
			{
				OFFSET -0.000000 0.000001 8.374491
				CHANNELS 3 Yrotation Xrotation Zrotation
				JOINT Chest4
				{
					OFFSET -0.000000 0.000001 8.374493
					CHANNELS 3 Yrotation Xrotation Zrotation
					JOINT Neck
					{
						OFFSET -0.000000 0.000002 12.152554
						CHANNELS 3 Yrotation Xrotation Zrotation
						JOINT Head
						{
							OFFSET -0.000000 0.040101 7.802319
							CHANNELS 3 Yrotation Xrotation Zrotation
							End Site
							{
								OFFSET -0.000000 0.020947 14.853096
							}
						}
					}
					JOINT RightCollar
					{
						OFFSET 2.894404 0.000001 6.791374
						CHANNELS 3 Yrotation Xrotation Zrotation
						JOINT RightShoulder
						{
							OFFSET 13.574684 0.000001 0.000000
							CHANNELS 3 Yrotation Xrotation Zrotation
							JOINT RightElbow
							{
								OFFSET 23.923903 0.000002 0.000000
								CHANNELS 3 Yrotation Xrotation Zrotation
								JOINT RightWrist
								{
									OFFSET 19.846718 0.012767 0.000000
									CHANNELS 3 Yrotation Xrotation Zrotation
									End Site
									{
										OFFSET 14.973145 0.000001 0.000000
									}
								}
							}
						}
					}
					JOINT LeftCollar
					{
						OFFSET -2.894404 0.000001 6.791374
						CHANNELS 3 Yrotation Xrotation Zrotation
						JOINT LeftShoulder
						{
							OFFSET -13.574684 -0.000001 0.000000
							CHANNELS 3 Yrotation Xrotation Zrotation
							JOINT LeftElbow
							{
								OFFSET -23.923903 -0.000002 0.000000
								CHANNELS 3 Yrotation Xrotation Zrotation
								JOINT LeftWrist
								{
									OFFSET -19.846718 0.012763 0.000000
									CHANNELS 3 Yrotation Xrotation Zrotation
									End Site
									{
										OFFSET -14.973145 -0.000001 0.000000
									}
								}
							}
						}
					}
				}
			}
		}
	}
	JOINT RightHip
	{
		OFFSET 9.469263 0.004643 0.045487
		CHANNELS 3 Yrotation Xrotation Zrotation
		JOINT RightKnee
		{
			OFFSET 0.000000 0.002661 -40.478676
			CHANNELS 3 Yrotation Xrotation Zrotation
			JOINT RightAnkle
			{
				OFFSET 0.000000 0.049106 -35.224068
				CHANNELS 3 Yrotation Xrotation Zrotation
				JOINT RightToe
				{
					OFFSET -0.000001 12.539529 -6.151390
					CHANNELS 3 Yrotation Xrotation Zrotation
					End Site
					{
						OFFSET -0.000001 5.044994 -1.291870
					}
				}
			}
		}
	}
	JOINT LeftHip
	{
		OFFSET -9.469263 0.004641 0.045487
		CHANNELS 3 Yrotation Xrotation Zrotation
		JOINT LeftKnee
		{
			OFFSET 0.000000 0.002661 -40.478676
			CHANNELS 3 Yrotation Xrotation Zrotation
			JOINT LeftAnkle
			{
				OFFSET 0.000000 0.049106 -35.224068
				CHANNELS 3 Yrotation Xrotation Zrotation
				JOINT LeftToe
				{
					OFFSET -0.000001 12.539529 -6.151390
					CHANNELS 3 Yrotation Xrotation Zrotation
					End Site
					{
						OFFSET -0.000001 5.044994 -1.291870
					}
				}
			}
		}
	}
}
MOTION
Frames: 11
Frame Time: 0.016667
-11.298455 25.048672 85.532570 1.220131 2.592698 -92.535410 -2.585348 -2.330821 -0.193026 -1.009975 -1.014733 -0.230544 -1.009975 -1.014732 -0.230543 -0.757845 -0.760671 -0.174581 4.873523 -16.425126 -8.943615 5.859951 5.727211 -14.863441 8.689534 4.331228 -1.125226 47.912882 -18.149143 -13.390288 22.526879 -37.518219 45.041478 -27.238781 38.550274 67.068196 -7.641563 5.269222 -3.279318 -42.449588 -6.145962 15.603260 -41.430408 -56.848542 -20.312482 15.937181 15.233026 -57.522938 -3.512720 14.181747 -14.637898 2.030828 -6.103052 -17.826532 5.277323 -11.436561 12.637558 -1.612726 0.671662 0.431895 -6.024071 -3.944031 -11.777333 -1.838536 -14.591617 11.785557 4.238299 -14.878847 2.397226 -3.614297 34.649464 -1.455052 
-11.627620 25.312565 85.500809 1.203387 2.526029 -92.478391 -2.549711 -2.338904 -0.154387 -0.974962 -1.028751 -0.231407 -0.974962 -1.028750 -0.231407 -0.731591 -0.771195 -0.175192 4.883528 -16.445933 -8.949780 5.877980 5.689320 -14.870806 8.688404 4.304443 -1.109942 47.865303 -18.067278 -13.467065 22.452007 -37.488986 45.200088 -27.221398 38.575754 67.087409 -7.637953 5.197399 -3.252523 -42.520390 -6.094325 15.569819 -41.344590 -56.825473 -20.343706 15.953623 15.188162 -57.455852 -3.745684 14.583224 -14.503852 2.011313 -6.504443 -18.176785 6.010754 -11.668146 12.656865 -1.684033 0.461628 0.407072 -6.107696 -4.149392 -11.704523 -1.800652 -14.034578 11.474484 4.509778 -14.098684 2.664338 -3.631475 33.476154 -1.426988 
-11.978058 25.562799 85.459183 1.177666 2.464222 -92.404120 -2.514197 -2.351187 -0.112531 -0.943915 -1.043678 -0.234999 -0.943915 -1.043678 -0.234999 -0.708318 -0.782398 -0.177857 4.902862 -16.460933 -8.961721 5.910780 5.662719 -14.885689 8.694184 4.291257 -1.105238 47.791407 -18.030740 -13.497861 22.385820 -37.448046 45.329524 -27.205385 38.591528 67.113616 -7.629297 5.102479 -3.252062 -42.613171 -6.018936 15.520493 -41.251313 -56.792992 -20.372204 15.976676 15.157657 -57.424795 -4.009964 14.931103 -14.333972 2.073192 -6.815602 -18.346165 6.685639 -11.910715 12.647397 -1.704751 0.261744 0.387257 -6.169815 -4.331432 -11.667573 -1.798522 -13.502952 11.162119 4.745497 -13.334239 2.943037 -3.604993 32.314940 -1.392280 
-12.328616 25.796539 85.411919 1.160891 2.392531 -92.314255 -2.463720 -2.357118 -0.071532 -0.917956 -1.052851 -0.239997 -0.917956 -1.052851 -0.239996 -0.688861 -0.789280 -0.181574 4.933674 -16.482208 -8.979191 5.963382 5.625237 -14.906596 8.686681 4.264192 -1.126747 47.711566 -18.015857 -13.454701 22.318384 -37.405965 45.423575 -27.181240 38.590955 67.143867 -7.631348 5.027087 -3.272574 -42.702971 -5.984541 15.476659 -41.162425 -56.746779 -20.397604 15.996356 15.157341 -57.428258 -4.207697 15.231250 -14.125105 2.084708 -6.988388 -18.355493 7.344774 -12.168295 12.455971 -1.677514 0.061550 0.363074 -6.194774 -4.476859 -11.608755 -1.825385 -13.016054 10.892807 4.948297 -12.570296 3.180503 -3.541836 31.180442 -1.354024 
-12.674752 25.999449 85.363464 1.155106 2.305187 -92.219015 -2.397912 -2.343786 -0.036380 -0.893442 -1.053104 -0.244332 -0.893442 -1.053104 -0.244333 -0.670484 -0.789473 -0.184785 4.971804 -16.520484 -9.003006 6.028663 5.556691 -14.936276 8.675471 4.248119 -1.150215 47.623033 -18.021031 -13.387625 22.232042 -37.393882 45.495084 -27.150125 38.588834 67.175969 -7.657060 5.001546 -3.294743 -42.781286 -6.017459 15.471890 -41.054348 -56.694870 -20.437772 16.011514 15.177054 -57.431379 -4.321558 15.505971 -13.938278 2.026478 -7.076276 -18.294978 7.938880 -12.452064 12.208370 -1.598655 -0.111528 0.348003 -6.188552 -4.609907 -11.505827 -1.828653 -12.536506 10.644781 5.117011 -11.818310 3.358416 -3.464341 30.064976 -1.317397 
-13.020494 26.174961 85.312836 1.159617 2.197814 -92.124103 -2.322547 -2.310121 -0.005140 -0.866934 -1.044734 -0.245075 -0.866934 -1.044734 -0.245075 -0.650602 -0.783205 -0.185284 5.013033 -16.572375 -9.033895 6.098285 5.462976 -14.977719 8.659310 4.230740 -1.164882 47.519183 -18.016149 -13.317107 22.163416 -37.420028 45.550429 -27.116964 38.588383 67.197628 -7.679764 4.963117 -3.313078 -42.855055 -6.040930 15.462992 -40.964486 -56.652967 -20.451108 16.021182 15.205639 -57.409939 -4.375565 15.801815 -13.753181 1.933447 -7.160099 -18.345651 8.410126 -12.823439 12.126970 -1.478895 -0.203988 0.344678 -6.140387 -4.738395 -11.319836 -1.816329 -12.038570 10.329569 5.258238 -11.110068 3.517833 -3.373929 28.980551 -1.281183 
-13.376731 26.337791 85.256302 1.185968 2.079097 -92.056566 -2.253234 -2.262469 0.047052 -0.837447 -1.033708 -0.240664 -0.837447 -1.033708 -0.240664 -0.628476 -0.774954 -0.181910 5.057185 -16.618818 -9.070960 6.170723 5.379385 -15.029731 8.642607 4.236740 -1.184809 47.401065 -18.019842 -13.250212 22.133395 -37.454367 45.602482 -27.085479 38.578063 67.212053 -7.690572 4.952689 -3.324959 -42.924611 -6.044839 15.462044 -40.904569 -56.617125 -20.434529 16.029993 15.197869 -57.353973 -4.413626 16.163569 -13.489480 1.873328 -7.306021 -18.523056 8.775183 -13.196738 12.144169 -1.336947 -0.270113 0.337640 -6.065883 -4.840862 -11.037625 -1.811747 -11.545637 9.963134 5.388037 -10.355518 3.684006 -3.274388 27.856020 -1.246038 
-13.753697 26.503519 85.191193 1.225403 1.955152 -92.002320 -2.191605 -2.206670 0.101621 -0.806044 -1.019234 -0.232463 -0.806044 -1.019235 -0.232463 -0.604905 -0.764120 -0.175689 5.098656 -16.656169 -9.108578 6.237285 5.312408 -15.083923 8.630232 4.247146 -1.194500 47.278337 -18.032613 -13.203288 22.132195 -37.487223 45.664124 -27.068712 38.567223 67.212128 -7.707080 4.972961 -3.330819 -42.972303 -6.028930 15.490377 -40.871589 -56.600705 -20.394750 16.041623 15.158652 -57.274787 -4.486277 16.588788 -13.186911 1.881980 -7.522160 -18.731061 9.045674 -13.613930 12.224790 -1.183664 -0.276053 0.334509 -5.982637 -4.922270 -10.729914 -1.822013 -11.033945 9.568307 5.536311 -9.620346 3.861605 -3.180524 26.725221 -1.211277 
-14.150180 26.698112 85.116608 1.263458 1.847666 -91.955267 -2.154954 -2.158000 0.150988 -0.776951 -1.004921 -0.221443 -0.776951 -1.004922 -0.221443 -0.583063 -0.753411 -0.167357 5.140095 -16.676827 -9.146199 6.302443 5.276316 -15.138522 8.623041 4.262732 -1.213452 47.167333 -18.064532 -13.164137 22.153387 -37.510098 45.725261 -27.061414 38.560168 67.209505 -7.719236 4.994778 -3.333257 -43.003233 -5.978505 15.522421 -40.857550 -56.604168 -20.329469 16.038473 15.121154 -57.205443 -4.628955 17.076322 -12.885025 2.011991 -7.829489 -19.003990 9.250854 -13.920375 11.984317 -1.052654 -0.300177 0.321749 -5.924381 -4.977511 -10.450064 -1.883280 -10.536104 9.151294 5.717723 -8.903610 4.111009 -3.087507 25.600041 -1.171219 
-14.566418 26.898815 85.032051 1.287608 1.758828 -91.914184 -2.136864 -2.126075 0.197989 -0.752911 -0.993882 -0.209110 -0.752911 -0.993881 -0.209110 -0.565009 -0.745156 -0.158054 5.179887 -16.678043 -9.183387 6.363142 5.276095 -15.193298 8.625860 4.274781 -1.234489 47.080730 -18.086240 -13.140952 22.167171 -37.526490 45.787293 -27.057948 38.558098 67.207388 -7.737712 5.033036 -3.340975 -43.021159 -5.926638 15.573649 -40.828545 -56.608809 -20.272884 16.033449 15.096699 -57.167406 -4.870502 17.594222 -12.507811 2.217956 -8.246583 -19.369290 9.434439 -14.205398 11.985584 -0.923085 -0.316582 0.323007 -5.894567 -4.996164 -10.233260 -1.954551 -10.107865 8.785647 5.875567 -8.173678 4.350984 -2.965116 24.481500 -1.126381 
-14.996903 27.113806 84.936363 1.295713 1.716312 -91.861209 -2.149233 -2.109306 0.229636 -0.736872 -0.986397 -0.200162 -0.736872 -0.986397 -0.200162 -0.552963 -0.739558 -0.151308 5.214930 -16.664570 -9.215634 6.415595 5.302848 -15.240889 8.626881 4.266228 -1.256897 47.025893 -18.082700 -13.115502 22.161278 -37.534902 45.839189 -27.048126 38.559901 67.218965 -7.748769 5.042630 -3.341315 -43.049077 -5.875307 15.619835 -40.777408 -56.606730 -20.245763 16.024076 15.096914 -57.173403 -5.177569 18.172073 -12.008454 2.448927 -8.795031 -19.694342 9.630499 -14.394456 11.979587 -0.781514 -0.339256 0.325645 -5.942184 -4.977160 -10.106685 -2.007052 -9.758524 8.530210 5.960511 -7.438006 4.583045 -2.786667 23.384599 -1.068130 
